<?xml version="1.0" encoding="UTF-8"?>
<svg width="1200pt" height="1200pt" version="1.1" viewBox="0 0 1200 1200" xmlns="http://www.w3.org/2000/svg">
 <g fill="#36f1cd">
  <path d="m930 212.5c10-20 17.5-42.5 17.5-67.5 0-80-67.5-145-147.5-145-67.5 0-122.5 45-140 107.5-20-2.5-40-5-60-5-302.5 0-550 245-550 550s245 550 550 550 550-245 550-550c0-175-82.5-335-220-440zm-130-162.5c52.5 0 95 42.5 95 95s-42.5 95-95 95-95-42.5-95-95 42.5-95 95-95zm-200 1100c-275 0-500-222.5-500-500s222.5-500 500-500c17.5 0 37.5 2.5 55 2.5 5 75 67.5 135 145 135 37.5 0 72.5-15 97.5-37.5 125 95 200 242.5 200 400 2.5 277.5-222.5 500-497.5 500z"/>
  <path d="m600 375c-152.5 0-275 125-275 275 0 122.5 80 227.5 195 262.5 12.5 52.5 57.5 90 112.5 90 62.5 0 115-52.5 115-115v-5c80-50 130-137.5 130-232.5-2.5-150-125-275-277.5-275zm32.5 580c-35 0-65-30-65-65s30-65 65-65 65 30 65 65-30 65-65 65zm100-120c-20-37.5-57.5-60-100-60-55 0-100 37.5-112.5 87.5-87.5-32.5-145-115-145-212.5 0-125 102.5-225 225-225 125 0 225 102.5 225 225 0 75-35 142.5-92.5 185z"/>
 </g>
</svg>
